<svg xmlns="http://www.w3.org/2000/svg" viewBox="0 0 128 128" role="img" aria-label="Enflasyon Canavarı amblemi">
  
  <circle cx="64" cy="64" r="60" fill="#D85A30"></circle>
  
  <path d="M32 73 Q64 68 96 73 Q93 105 64 109 Q35 105 32 73 Z" fill="#3A1208"></path>
  
  <path d="M37 73 l9 0 -4.5 13 z" fill="#FBF3EC"></path>
  <path d="M49 73 l9 0 -4.5 14 z" fill="#FBF3EC"></path>
  <path d="M61 73 l9 0 -4.5 14 z" fill="#FBF3EC"></path>
  <path d="M73 73 l9 0 -4.5 13 z" fill="#FBF3EC"></path>
  <path d="M84.5 74 l8 0 -4 11 z" fill="#FBF3EC"></path>
  
  <path d="M50 105 l8 0 -4 -10 z" fill="#FBF3EC"></path>
  <path d="M64 107 l8 0 -4 -11 z" fill="#FBF3EC"></path>
  <path d="M77 104 l7 0 -3.5 -9 z" fill="#FBF3EC"></path>
  
  <text x="40" y="101" font-family="Geist, sans-serif" font-size="15" font-weight="700" fill="#E9C8A2">$</text>
  <text x="58" y="103" font-family="Geist, sans-serif" font-size="17" font-weight="700" fill="#E9C8A2">₺</text>
  <text x="81" y="100" font-family="Geist, sans-serif" font-size="14" font-weight="700" fill="#E9C8A2">$</text>
  
  <ellipse cx="45" cy="47" rx="13" ry="12" fill="#FBF3EC"></ellipse>
  <ellipse cx="81" cy="44" rx="17" ry="18" fill="#FBF3EC"></ellipse>
  <circle cx="48" cy="48" r="6" fill="#1A1410"></circle>
  <circle cx="85" cy="46" r="8" fill="#1A1410"></circle>
  
  <path d="M31 33 L59 41" stroke="#9C3A1C" stroke-width="7" stroke-linecap="round"></path>
  <path d="M97 27 L69 31" stroke="#9C3A1C" stroke-width="7" stroke-linecap="round"></path>
</svg>